<?xml version="1.0" encoding="UTF-8"?>
<svg id="Layer_1" data-name="Layer 1" xmlns="http://www.w3.org/2000/svg" width="512" height="512" viewBox="0 0 512 512">
  <path d="M505.03,178.23v155.54c0,25.26-5.47,49.25-15.29,70.84-26.95,59.23-86.65,100.42-155.97,100.42h-155.54c-94.58,0-171.26-76.68-171.26-171.26v-155.54C6.97,83.65,83.65,6.97,178.23,6.97h155.54c67.67,0,126.18,39.26,154,96.24,11.05,22.65,17.26,48.11,17.26,75.02Z" fill="#3b5b43"/>
  <path d="M505.03,178.23c0-26.91-6.21-52.37-17.26-75.02l-93.18,93.18-61.56-61.56c-31.56-31.56-73.52-48.94-118.15-48.94s-86.6,17.38-118.15,48.94c-31.56,31.56-48.94,73.52-48.94,118.15s17.38,86.59,48.94,118.15c16.29,16.29,35.13,28.51,55.24,36.65,20.12,8.14,41.51,12.21,62.91,12.21,42.78,0,85.57-16.29,118.15-48.86l61.61-61.61,95.1,95.09c9.82-21.59,15.29-45.58,15.29-70.84v-27l-53.84-53.84,53.84-53.84v-20.86ZM276.46,314.56c-33.96,33.96-89.21,33.96-123.17,0-8.22-8.22-14.59-17.8-18.91-28.24-4.32-10.43-6.59-21.71-6.59-33.34,0-23.26,9.05-45.13,25.5-61.58,16.45-16.45,38.32-25.51,61.59-25.51s45.13,9.06,61.58,25.51l61.58,61.58-61.58,61.58Z" fill="#d9b404"/>
</svg>